<svg xmlns="http://www.w3.org/2000/svg"
viewBox = "0 0 1000 1000"
width="1000"
height="1000">
<g fill="None" fill-opacity="0.0" stroke="#F7FDFC" stroke-opacity="1.00" stroke-width="0.3"><path d="
M 0.00 1000.00
L 1000.00 1000.00
L 1000.00 0.00
L 0.00 0.00
L 0.00 1000.00
M 748.00 318.00
C 743.67 318.00 739.33 318.00 735.00 318.00
C 728.18 302.20 707.51 317.18 712.00 331.00 C 709.57 346.12 733.70 354.17 736.00 337.00
C 727.48 339.51 724.13 333.76 726.00 326.00
C 733.67 326.00 741.33 326.00 749.00 326.00
C 749.00 336.33 749.00 346.67 749.00 357.00
C 745.03 356.91 737.44 358.57 739.00 352.00
C 718.48 371.48 689.63 343.60 699.33 320.33 C 701.86 295.58 745.68 291.60 748.00 318.00
M 836.00 300.00
C 868.00 307.82 859.72 366.26 824.00 358.00 C 791.48 351.16 800.57 291.63 836.00 300.00
M 906.00 318.00
C 893.11 323.10 888.99 306.22 876.78 311.78 C 868.76 322.26 889.47 321.38 895.22 324.78 C 905.57 327.08 910.30 340.14 904.74 348.74 C 895.67 365.17 855.61 361.09 860.26 339.26 C 873.60 333.64 874.33 352.33 887.67 347.67 C 901.37 340.19 883.75 333.39 875.93 333.07 C 848.68 330.82 861.65 291.66 886.00 300.00 C 895.84 299.94 906.73 307.10 906.00 318.00
M 643.00 331.00
C 647.09 321.72 649.50 311.09 652.00 301.00
C 658.33 301.00 664.67 301.00 671.00 301.00
C 671.00 319.67 671.00 338.33 671.00 357.00
C 666.67 357.00 662.33 357.00 658.00 357.00
C 657.33 346.50 659.33 334.68 657.00 325.00
C 653.50 335.53 651.91 346.59 648.00 357.00
C 644.67 357.00 641.33 357.00 638.00 357.00
C 634.76 346.71 631.61 336.49 629.00 326.00
C 626.69 335.42 628.65 346.82 628.00 357.00
C 623.67 357.00 619.33 357.00 615.00 357.00
C 615.00 338.33 615.00 319.67 615.00 301.00
C 622.69 302.16 636.82 296.71 636.33 308.67 C 638.57 316.09 640.65 323.59 643.00 331.00
M 693.00 301.00
C 693.00 304.33 693.00 307.67 693.00 311.00
C 688.67 311.00 684.33 311.00 680.00 311.00
C 680.00 307.67 680.00 304.33 680.00 301.00
C 684.33 301.00 688.67 301.00 693.00 301.00
M 793.00 330.00
C 799.93 337.20 800.46 347.25 801.00 357.00
C 796.33 357.00 791.67 357.00 787.00 357.00
C 785.75 349.68 787.57 337.79 777.93 336.07 C 764.22 332.33 770.24 349.19 769.00 357.00
C 764.67 357.00 760.33 357.00 756.00 357.00
C 756.00 338.33 756.00 319.67 756.00 301.00
C 768.34 302.12 782.11 298.36 793.23 303.77 C 803.16 308.27 802.40 325.08 793.00 330.00
M 693.00 316.00
C 693.00 329.67 693.00 343.33 693.00 357.00
C 688.67 357.00 684.33 357.00 680.00 357.00
C 680.00 343.33 680.00 329.67 680.00 316.00
C 684.33 316.00 688.67 316.00 693.00 316.00
M 247.00 381.00
C 330.47 385.12 402.17 464.86 394.00 550.00 C 390.13 633.81 308.98 705.10 224.78 696.22 C 140.39 693.68 69.05 612.79 77.00 528.00 C 80.70 443.40 161.93 373.07 247.00 381.00
M 613.00 569.00
C 617.52 567.66 613.77 554.75 615.00 549.00 C 615.00 517.00 615.00 485.00 615.00 453.00 C 618.17 441.95 605.58 445.42 599.00 445.00 C 591.00 445.00 583.00 445.00 575.00 445.00
C 584.78 427.92 598.30 412.63 608.77 395.77 C 614.05 381.95 630.27 388.39 642.00 387.00 C 652.39 390.16 676.98 379.09 675.00 396.00 C 675.00 494.00 675.00 592.00 675.00 690.00
C 654.83 689.33 633.35 691.33 614.00 689.00
C 576.15 627.96 537.59 566.53 499.00 506.00
C 499.00 566.19 499.00 628.86 499.00 690.00
C 479.00 690.00 459.00 690.00 439.00 690.00
C 439.84 589.23 437.32 487.33 440.26 387.26 C 456.80 386.66 473.43 387.17 490.00 387.00 C 504.63 385.54 506.15 404.97 514.77 413.23 C 547.25 465.29 580.49 516.92 613.00 569.00
M 907.00 445.00
C 864.67 445.00 822.33 445.00 780.00 445.00
C 780.00 466.67 780.00 488.33 780.00 510.00
C 813.00 510.00 846.00 510.00 879.00 510.00
C 879.00 529.33 879.00 548.67 879.00 568.00
C 846.00 568.00 813.00 568.00 780.00 568.00
C 780.00 589.67 780.00 611.33 780.00 633.00
C 822.33 633.00 864.67 633.00 907.00 633.00
C 907.00 652.00 907.00 671.00 907.00 690.00
C 848.67 690.00 790.33 690.00 732.00 690.00 C 715.53 695.03 720.55 677.07 720.00 667.00 C 720.52 574.01 718.96 480.38 720.78 387.78 C 778.36 385.96 837.01 387.52 895.00 387.00 C 911.48 381.97 906.45 399.93 907.00 410.00 C 907.00 421.67 907.00 433.33 907.00 445.00 Z"/>
</g>
<g fill="None" fill-opacity="0.0" stroke="#DF6911" stroke-opacity="1.00" stroke-width="0.3"><path d="
M 748.00 318.00
C 745.68 291.60 701.86 295.58 699.33 320.33 C 689.63 343.60 718.48 371.48 739.00 352.00
C 737.44 358.57 745.03 356.91 749.00 357.00
C 749.00 346.67 749.00 336.33 749.00 326.00
C 741.33 326.00 733.67 326.00 726.00 326.00
C 724.13 333.76 727.48 339.51 736.00 337.00
C 733.70 354.17 709.57 346.12 712.00 331.00 C 707.51 317.18 728.18 302.20 735.00 318.00
C 739.33 318.00 743.67 318.00 748.00 318.00 Z"/>
</g>
<g fill="None" fill-opacity="0.0" stroke="#DF6911" stroke-opacity="1.00" stroke-width="0.3"><path d="
M 836.00 300.00
C 800.57 291.63 791.48 351.16 824.00 358.00 C 859.72 366.26 868.00 307.82 836.00 300.00
M 834.00 311.00
C 847.13 318.16 845.20 350.54 826.78 346.22 C 811.76 340.94 815.02 307.15 834.00 311.00 Z"/>
</g>
<g fill="None" fill-opacity="0.0" stroke="#DF6911" stroke-opacity="1.00" stroke-width="0.3"><path d="
M 906.00 318.00
C 906.73 307.10 895.84 299.94 886.00 300.00 C 861.65 291.66 848.68 330.82 875.93 333.07 C 883.75 333.39 901.37 340.19 887.67 347.67 C 874.33 352.33 873.60 333.64 860.26 339.26 C 855.61 361.09 895.67 365.17 904.74 348.74 C 910.30 340.14 905.57 327.08 895.22 324.78 C 889.47 321.38 868.76 322.26 876.78 311.78 C 888.99 306.22 893.11 323.10 906.00 318.00 Z"/>
</g>
<g fill="None" fill-opacity="0.0" stroke="#DF6911" stroke-opacity="1.00" stroke-width="0.3"><path d="
M 643.00 331.00
C 640.65 323.59 638.57 316.09 636.33 308.67 C 636.82 296.71 622.69 302.16 615.00 301.00
C 615.00 319.67 615.00 338.33 615.00 357.00
C 619.33 357.00 623.67 357.00 628.00 357.00
C 628.65 346.82 626.69 335.42 629.00 326.00
C 631.61 336.49 634.76 346.71 638.00 357.00
C 641.33 357.00 644.67 357.00 648.00 357.00
C 651.91 346.59 653.50 335.53 657.00 325.00
C 659.33 334.68 657.33 346.50 658.00 357.00
C 662.33 357.00 666.67 357.00 671.00 357.00
C 671.00 338.33 671.00 319.67 671.00 301.00
C 664.67 301.00 658.33 301.00 652.00 301.00
C 649.50 311.09 647.09 321.72 643.00 331.00 Z"/>
</g>
<g fill="None" fill-opacity="0.0" stroke="#DF6911" stroke-opacity="1.00" stroke-width="0.3"><path d="
M 693.00 301.00
C 688.67 301.00 684.33 301.00 680.00 301.00
C 680.00 304.33 680.00 307.67 680.00 311.00
C 684.33 311.00 688.67 311.00 693.00 311.00
C 693.00 307.67 693.00 304.33 693.00 301.00 Z"/>
</g>
<g fill="None" fill-opacity="0.0" stroke="#DF6911" stroke-opacity="1.00" stroke-width="0.3"><path d="
M 793.00 330.00
C 802.40 325.08 803.16 308.27 793.23 303.77 C 782.11 298.36 768.34 302.12 756.00 301.00
C 756.00 319.67 756.00 338.33 756.00 357.00
C 760.33 357.00 764.67 357.00 769.00 357.00
C 770.24 349.19 764.22 332.33 777.93 336.07 C 787.57 337.79 785.75 349.68 787.00 357.00
C 791.67 357.00 796.33 357.00 801.00 357.00
C 800.46 347.25 799.93 337.20 793.00 330.00
M 770.00 325.00
C 770.00 320.67 770.00 316.33 770.00 312.00
C 775.50 312.29 785.80 309.96 785.99 318.01 C 786.93 327.13 775.84 324.86 770.00 325.00 Z"/>
</g>
<g fill="None" fill-opacity="0.0" stroke="#F7FDFC" stroke-opacity="1.00" stroke-width="0.3"><path d="
M 834.00 311.00
C 815.02 307.15 811.76 340.94 826.78 346.22 C 845.20 350.54 847.13 318.16 834.00 311.00 Z"/>
</g>
<g fill="None" fill-opacity="0.0" stroke="#F7FDFC" stroke-opacity="1.00" stroke-width="0.3"><path d="
M 770.00 325.00
C 775.84 324.86 786.93 327.13 785.99 318.01 C 785.80 309.96 775.50 312.29 770.00 312.00
C 770.00 316.33 770.00 320.67 770.00 325.00 Z"/>
</g>
<g fill="None" fill-opacity="0.0" stroke="#DF6911" stroke-opacity="1.00" stroke-width="0.3"><path d="
M 693.00 316.00
C 688.67 316.00 684.33 316.00 680.00 316.00
C 680.00 329.67 680.00 343.33 680.00 357.00
C 684.33 357.00 688.67 357.00 693.00 357.00
C 693.00 343.33 693.00 329.67 693.00 316.00 Z"/>
</g>
<g fill="None" fill-opacity="0.0" stroke="#1C201F" stroke-opacity="1.00" stroke-width="0.3"><path d="
M 247.00 381.00
C 161.93 373.07 80.70 443.40 77.00 528.00 C 69.05 612.79 140.39 693.68 224.78 696.22 C 308.98 705.10 390.13 633.81 394.00 550.00 C 402.17 464.86 330.47 385.12 247.00 381.00
M 248.00 439.00
C 300.09 444.82 341.51 497.50 333.67 550.67 C 329.36 603.08 276.97 646.75 223.93 638.07 C 170.62 633.91 129.41 580.45 137.00 527.00 C 141.32 473.37 193.80 431.43 248.00 439.00 Z"/>
</g>
<g fill="None" fill-opacity="0.0" stroke="#1C201F" stroke-opacity="1.00" stroke-width="0.3"><path d="
M 614.00 689.00
C 616.33 669.90 614.34 648.85 615.00 629.00 C 613.74 609.17 617.57 587.90 613.00 569.00
C 580.49 516.92 547.25 465.29 514.77 413.23 C 506.15 404.97 504.63 385.54 490.00 387.00 C 473.43 387.17 456.80 386.66 440.26 387.26 C 437.32 487.33 439.84 589.23 439.00 690.00
C 459.00 690.00 479.00 690.00 499.00 690.00
C 499.00 628.86 499.00 566.19 499.00 506.00
C 537.59 566.53 576.15 627.96 614.00 689.00 Z"/>
</g>
<g fill="None" fill-opacity="0.0" stroke="#DF6911" stroke-opacity="1.00" stroke-width="0.3"><path d="
M 613.00 569.00
C 617.57 587.90 613.74 609.17 615.00 629.00 C 614.34 648.85 616.33 669.90 614.00 689.00
C 633.35 691.33 654.83 689.33 675.00 690.00
C 675.00 592.00 675.00 494.00 675.00 396.00 C 676.98 379.09 652.39 390.16 642.00 387.00 C 630.27 388.39 614.05 381.95 608.77 395.77 C 598.30 412.63 584.78 427.92 575.00 445.00
C 583.00 445.00 591.00 445.00 599.00 445.00 C 605.58 445.42 618.17 441.95 615.00 453.00 C 615.00 485.00 615.00 517.00 615.00 549.00 C 613.77 554.75 617.52 567.66 613.00 569.00 Z"/>
</g>
<g fill="None" fill-opacity="0.0" stroke="#1C201F" stroke-opacity="1.00" stroke-width="0.3"><path d="
M 907.00 445.00
C 907.00 433.33 907.00 421.67 907.00 410.00 C 906.45 399.93 911.48 381.97 895.00 387.00 C 837.01 387.52 778.36 385.96 720.78 387.78 C 718.96 480.38 720.52 574.01 720.00 667.00 C 720.55 677.07 715.53 695.03 732.00 690.00 C 790.33 690.00 848.67 690.00 907.00 690.00
C 907.00 671.00 907.00 652.00 907.00 633.00
C 864.67 633.00 822.33 633.00 780.00 633.00
C 780.00 611.33 780.00 589.67 780.00 568.00
C 813.00 568.00 846.00 568.00 879.00 568.00
C 879.00 548.67 879.00 529.33 879.00 510.00
C 846.00 510.00 813.00 510.00 780.00 510.00
C 780.00 488.33 780.00 466.67 780.00 445.00
C 822.33 445.00 864.67 445.00 907.00 445.00 Z"/>
</g>
<g fill="None" fill-opacity="0.0" stroke="#F7FDFC" stroke-opacity="1.00" stroke-width="0.3"><path d="
M 248.00 439.00
C 193.80 431.43 141.32 473.37 137.00 527.00 C 129.41 580.45 170.62 633.91 223.93 638.07 C 276.97 646.75 329.36 603.08 333.67 550.67 C 341.51 497.50 300.09 444.82 248.00 439.00 Z"/>
</g>
<g fill="#F7FDFC" fill-opacity="1.00" stroke="None">
<path d="
M 0.00 1000.00
L 1000.00 1000.00
L 1000.00 0.00
L 0.00 0.00
L 0.00 1000.00
M 748.00 318.00
C 743.67 318.00 739.33 318.00 735.00 318.00
C 728.18 302.20 707.51 317.18 712.00 331.00 C 709.57 346.12 733.70 354.17 736.00 337.00
C 727.48 339.51 724.13 333.76 726.00 326.00
C 733.67 326.00 741.33 326.00 749.00 326.00
C 749.00 336.33 749.00 346.67 749.00 357.00
C 745.03 356.91 737.44 358.57 739.00 352.00
C 718.48 371.48 689.63 343.60 699.33 320.33 C 701.86 295.58 745.68 291.60 748.00 318.00
M 836.00 300.00
C 868.00 307.82 859.72 366.26 824.00 358.00 C 791.48 351.16 800.57 291.63 836.00 300.00
M 906.00 318.00
C 893.11 323.10 888.99 306.22 876.78 311.78 C 868.76 322.26 889.47 321.38 895.22 324.78 C 905.57 327.08 910.30 340.14 904.74 348.74 C 895.67 365.17 855.61 361.09 860.26 339.26 C 873.60 333.64 874.33 352.33 887.67 347.67 C 901.37 340.19 883.75 333.39 875.93 333.07 C 848.68 330.82 861.65 291.66 886.00 300.00 C 895.84 299.94 906.73 307.10 906.00 318.00
M 643.00 331.00
C 647.09 321.72 649.50 311.09 652.00 301.00
C 658.33 301.00 664.67 301.00 671.00 301.00
C 671.00 319.67 671.00 338.33 671.00 357.00
C 666.67 357.00 662.33 357.00 658.00 357.00
C 657.33 346.50 659.33 334.68 657.00 325.00
C 653.50 335.53 651.91 346.59 648.00 357.00
C 644.67 357.00 641.33 357.00 638.00 357.00
C 634.76 346.71 631.61 336.49 629.00 326.00
C 626.69 335.42 628.65 346.82 628.00 357.00
C 623.67 357.00 619.33 357.00 615.00 357.00
C 615.00 338.33 615.00 319.67 615.00 301.00
C 622.69 302.16 636.82 296.71 636.33 308.67 C 638.57 316.09 640.65 323.59 643.00 331.00
M 693.00 301.00
C 693.00 304.33 693.00 307.67 693.00 311.00
C 688.67 311.00 684.33 311.00 680.00 311.00
C 680.00 307.67 680.00 304.33 680.00 301.00
C 684.33 301.00 688.67 301.00 693.00 301.00
M 793.00 330.00
C 799.93 337.20 800.46 347.25 801.00 357.00
C 796.33 357.00 791.67 357.00 787.00 357.00
C 785.75 349.68 787.57 337.79 777.93 336.07 C 764.22 332.33 770.24 349.19 769.00 357.00
C 764.67 357.00 760.33 357.00 756.00 357.00
C 756.00 338.33 756.00 319.67 756.00 301.00
C 768.34 302.12 782.11 298.36 793.23 303.77 C 803.16 308.27 802.40 325.08 793.00 330.00
M 693.00 316.00
C 693.00 329.67 693.00 343.33 693.00 357.00
C 688.67 357.00 684.33 357.00 680.00 357.00
C 680.00 343.33 680.00 329.67 680.00 316.00
C 684.33 316.00 688.67 316.00 693.00 316.00
M 247.00 381.00
C 330.47 385.12 402.17 464.86 394.00 550.00 C 390.13 633.81 308.98 705.10 224.78 696.22 C 140.39 693.68 69.05 612.79 77.00 528.00 C 80.70 443.40 161.93 373.07 247.00 381.00
M 613.00 569.00
C 617.52 567.66 613.77 554.75 615.00 549.00 C 615.00 517.00 615.00 485.00 615.00 453.00 C 618.17 441.95 605.58 445.42 599.00 445.00 C 591.00 445.00 583.00 445.00 575.00 445.00
C 584.78 427.92 598.30 412.63 608.77 395.77 C 614.05 381.95 630.27 388.39 642.00 387.00 C 652.39 390.16 676.98 379.09 675.00 396.00 C 675.00 494.00 675.00 592.00 675.00 690.00
C 654.83 689.33 633.35 691.33 614.00 689.00
C 576.15 627.96 537.59 566.53 499.00 506.00
C 499.00 566.19 499.00 628.86 499.00 690.00
C 479.00 690.00 459.00 690.00 439.00 690.00
C 439.84 589.23 437.32 487.33 440.26 387.26 C 456.80 386.66 473.43 387.17 490.00 387.00 C 504.63 385.54 506.15 404.97 514.77 413.23 C 547.25 465.29 580.49 516.92 613.00 569.00
M 907.00 445.00
C 864.67 445.00 822.33 445.00 780.00 445.00
C 780.00 466.67 780.00 488.33 780.00 510.00
C 813.00 510.00 846.00 510.00 879.00 510.00
C 879.00 529.33 879.00 548.67 879.00 568.00
C 846.00 568.00 813.00 568.00 780.00 568.00
C 780.00 589.67 780.00 611.33 780.00 633.00
C 822.33 633.00 864.67 633.00 907.00 633.00
C 907.00 652.00 907.00 671.00 907.00 690.00
C 848.67 690.00 790.33 690.00 732.00 690.00 C 715.53 695.03 720.55 677.07 720.00 667.00 C 720.52 574.01 718.96 480.38 720.78 387.78 C 778.36 385.96 837.01 387.52 895.00 387.00 C 911.48 381.97 906.45 399.93 907.00 410.00 C 907.00 421.67 907.00 433.33 907.00 445.00 Z"/>
</g>
<g fill="#DF6911" fill-opacity="1.00" stroke="None">
<path d="
M 748.00 318.00
C 745.68 291.60 701.86 295.58 699.33 320.33 C 689.63 343.60 718.48 371.48 739.00 352.00
C 737.44 358.57 745.03 356.91 749.00 357.00
C 749.00 346.67 749.00 336.33 749.00 326.00
C 741.33 326.00 733.67 326.00 726.00 326.00
C 724.13 333.76 727.48 339.51 736.00 337.00
C 733.70 354.17 709.57 346.12 712.00 331.00 C 707.51 317.18 728.18 302.20 735.00 318.00
C 739.33 318.00 743.67 318.00 748.00 318.00 Z"/>
</g>
<g fill="#DF6911" fill-opacity="1.00" stroke="None">
<path d="
M 836.00 300.00
C 800.57 291.63 791.48 351.16 824.00 358.00 C 859.72 366.26 868.00 307.82 836.00 300.00
M 834.00 311.00
C 847.13 318.16 845.20 350.54 826.78 346.22 C 811.76 340.94 815.02 307.15 834.00 311.00 Z"/>
</g>
<g fill="#DF6911" fill-opacity="1.00" stroke="None">
<path d="
M 906.00 318.00
C 906.73 307.10 895.84 299.94 886.00 300.00 C 861.65 291.66 848.68 330.82 875.93 333.07 C 883.75 333.39 901.37 340.19 887.67 347.67 C 874.33 352.33 873.60 333.64 860.26 339.26 C 855.61 361.09 895.67 365.17 904.74 348.74 C 910.30 340.14 905.57 327.08 895.22 324.78 C 889.47 321.38 868.76 322.26 876.78 311.78 C 888.99 306.22 893.11 323.10 906.00 318.00 Z"/>
</g>
<g fill="#DF6911" fill-opacity="1.00" stroke="None">
<path d="
M 643.00 331.00
C 640.65 323.59 638.57 316.09 636.33 308.67 C 636.82 296.71 622.69 302.16 615.00 301.00
C 615.00 319.67 615.00 338.33 615.00 357.00
C 619.33 357.00 623.67 357.00 628.00 357.00
C 628.65 346.82 626.69 335.42 629.00 326.00
C 631.61 336.49 634.76 346.71 638.00 357.00
C 641.33 357.00 644.67 357.00 648.00 357.00
C 651.91 346.59 653.50 335.53 657.00 325.00
C 659.33 334.68 657.33 346.50 658.00 357.00
C 662.33 357.00 666.67 357.00 671.00 357.00
C 671.00 338.33 671.00 319.67 671.00 301.00
C 664.67 301.00 658.33 301.00 652.00 301.00
C 649.50 311.09 647.09 321.72 643.00 331.00 Z"/>
</g>
<g fill="#DF6911" fill-opacity="1.00" stroke="None">
<path d="
M 693.00 301.00
C 688.67 301.00 684.33 301.00 680.00 301.00
C 680.00 304.33 680.00 307.67 680.00 311.00
C 684.33 311.00 688.67 311.00 693.00 311.00
C 693.00 307.67 693.00 304.33 693.00 301.00 Z"/>
</g>
<g fill="#DF6911" fill-opacity="1.00" stroke="None">
<path d="
M 793.00 330.00
C 802.40 325.08 803.16 308.27 793.23 303.77 C 782.11 298.36 768.34 302.12 756.00 301.00
C 756.00 319.67 756.00 338.33 756.00 357.00
C 760.33 357.00 764.67 357.00 769.00 357.00
C 770.24 349.19 764.22 332.33 777.93 336.07 C 787.57 337.79 785.75 349.68 787.00 357.00
C 791.67 357.00 796.33 357.00 801.00 357.00
C 800.46 347.25 799.93 337.20 793.00 330.00
M 770.00 325.00
C 770.00 320.67 770.00 316.33 770.00 312.00
C 775.50 312.29 785.80 309.96 785.99 318.01 C 786.93 327.13 775.84 324.86 770.00 325.00 Z"/>
</g>
<g fill="#F7FDFC" fill-opacity="1.00" stroke="None">
<path d="
M 834.00 311.00
C 815.02 307.15 811.76 340.94 826.78 346.22 C 845.20 350.54 847.13 318.16 834.00 311.00 Z"/>
</g>
<g fill="#F7FDFC" fill-opacity="1.00" stroke="None">
<path d="
M 770.00 325.00
C 775.84 324.86 786.93 327.13 785.99 318.01 C 785.80 309.96 775.50 312.29 770.00 312.00
C 770.00 316.33 770.00 320.67 770.00 325.00 Z"/>
</g>
<g fill="#DF6911" fill-opacity="1.00" stroke="None">
<path d="
M 693.00 316.00
C 688.67 316.00 684.33 316.00 680.00 316.00
C 680.00 329.67 680.00 343.33 680.00 357.00
C 684.33 357.00 688.67 357.00 693.00 357.00
C 693.00 343.33 693.00 329.67 693.00 316.00 Z"/>
</g>
<g fill="#1C201F" fill-opacity="1.00" stroke="None">
<path d="
M 247.00 381.00
C 161.93 373.07 80.70 443.40 77.00 528.00 C 69.05 612.79 140.39 693.68 224.78 696.22 C 308.98 705.10 390.13 633.81 394.00 550.00 C 402.17 464.86 330.47 385.12 247.00 381.00
M 248.00 439.00
C 300.09 444.82 341.51 497.50 333.67 550.67 C 329.36 603.08 276.97 646.75 223.93 638.07 C 170.62 633.91 129.41 580.45 137.00 527.00 C 141.32 473.37 193.80 431.43 248.00 439.00 Z"/>
</g>
<g fill="#1C201F" fill-opacity="1.00" stroke="None">
<path d="
M 614.00 689.00
C 616.33 669.90 614.34 648.85 615.00 629.00 C 613.74 609.17 617.57 587.90 613.00 569.00
C 580.49 516.92 547.25 465.29 514.77 413.23 C 506.15 404.97 504.63 385.54 490.00 387.00 C 473.43 387.17 456.80 386.66 440.26 387.26 C 437.32 487.33 439.84 589.23 439.00 690.00
C 459.00 690.00 479.00 690.00 499.00 690.00
C 499.00 628.86 499.00 566.19 499.00 506.00
C 537.59 566.53 576.15 627.96 614.00 689.00 Z"/>
</g>
<g fill="#DF6911" fill-opacity="1.00" stroke="None">
<path d="
M 613.00 569.00
C 617.57 587.90 613.74 609.17 615.00 629.00 C 614.34 648.85 616.33 669.90 614.00 689.00
C 633.35 691.33 654.83 689.33 675.00 690.00
C 675.00 592.00 675.00 494.00 675.00 396.00 C 676.98 379.09 652.39 390.16 642.00 387.00 C 630.27 388.39 614.05 381.95 608.77 395.77 C 598.30 412.63 584.78 427.92 575.00 445.00
C 583.00 445.00 591.00 445.00 599.00 445.00 C 605.58 445.42 618.17 441.95 615.00 453.00 C 615.00 485.00 615.00 517.00 615.00 549.00 C 613.77 554.75 617.52 567.66 613.00 569.00 Z"/>
</g>
<g fill="#1C201F" fill-opacity="1.00" stroke="None">
<path d="
M 907.00 445.00
C 907.00 433.33 907.00 421.67 907.00 410.00 C 906.45 399.93 911.48 381.97 895.00 387.00 C 837.01 387.52 778.36 385.96 720.78 387.78 C 718.96 480.38 720.52 574.01 720.00 667.00 C 720.55 677.07 715.53 695.03 732.00 690.00 C 790.33 690.00 848.67 690.00 907.00 690.00
C 907.00 671.00 907.00 652.00 907.00 633.00
C 864.67 633.00 822.33 633.00 780.00 633.00
C 780.00 611.33 780.00 589.67 780.00 568.00
C 813.00 568.00 846.00 568.00 879.00 568.00
C 879.00 548.67 879.00 529.33 879.00 510.00
C 846.00 510.00 813.00 510.00 780.00 510.00
C 780.00 488.33 780.00 466.67 780.00 445.00
C 822.33 445.00 864.67 445.00 907.00 445.00 Z"/>
</g>
<g fill="#F7FDFC" fill-opacity="1.00" stroke="None">
<path d="
M 248.00 439.00
C 193.80 431.43 141.32 473.37 137.00 527.00 C 129.41 580.45 170.62 633.91 223.93 638.07 C 276.97 646.75 329.36 603.08 333.67 550.67 C 341.51 497.50 300.09 444.82 248.00 439.00 Z"/>
</g>
</svg>
